<svg width="18" height="18" viewBox="0 0 18 18" xmlns="http://www.w3.org/2000/svg">
    <path d="M12.27 1.5c2.543 0 4.23 1.812 4.23 4.42v6.16c0 2.608-1.687 4.42-4.23 4.42H5.73c-2.543 0-4.23-1.812-4.23-4.42V5.92c0-2.605 1.692-4.42 4.23-4.42zm0 1.047H5.73c-1.943 0-3.183 1.33-3.183 3.373v6.16c0 2.046 1.236 3.373 3.184 3.373h6.538c1.948 0 3.184-1.327 3.184-3.373V5.92c0-2.046-1.236-3.373-3.184-3.373zM9 5.914c.265 0 .484.197.518.453l.005.07V8.47h2.035a.523.523 0 0 1 .071 1.042l-.07.005-2.036-.001v2.033a.523.523 0 0 1-1.041.071l-.005-.07-.001-2.034H6.442a.523.523 0 0 1-.071-1.041l.07-.005h2.035V6.438c0-.29.235-.524.524-.524z" fill="#B38185" fill-rule="nonzero"/>
</svg>
