<svg width="19" height="17" viewBox="0 0 19 17" xmlns="http://www.w3.org/2000/svg">
    <path d="m10.157.596 2.135 4.3a.733.733 0 0 0 .55.403l4.776.692a.73.73 0 0 1 .486.284.713.713 0 0 1-.078.952l-3.46 3.36a.698.698 0 0 0-.208.642l.834 4.736a.727.727 0 0 1-.6.824.788.788 0 0 1-.475-.074l-4.26-2.232a.712.712 0 0 0-.683 0L4.886 16.73a.745.745 0 0 1-.986-.304.734.734 0 0 1-.075-.462l.834-4.736a.725.725 0 0 0-.208-.642L.964 7.227a.728.728 0 0 1-.002-1.03.833.833 0 0 1 .418-.206l4.776-.692a.752.752 0 0 0 .55-.403l2.135-4.3a.73.73 0 0 1 .983-.33c.144.072.26.187.333.33z" fill="#B38185" fill-rule="evenodd"/>
</svg>
